<svg width="156" height="160" xmlns="http://www.w3.org/2000/svg" xmlns:xlink="http://www.w3.org/1999/xlink" xml:space="preserve" overflow="hidden"><defs><clipPath id="clip0"><rect x="674" y="232" width="156" height="160"/></clipPath><clipPath id="clip1"><rect x="675" y="232" width="155" height="160"/></clipPath><clipPath id="clip2"><rect x="675" y="232" width="155" height="160"/></clipPath><clipPath id="clip3"><rect x="675" y="232" width="155" height="160"/></clipPath><clipPath id="clip4"><rect x="675" y="232" width="155" height="160"/></clipPath></defs><g clip-path="url(#clip0)" transform="translate(-674 -232)"><g clip-path="url(#clip1)"><g clip-path="url(#clip2)"><g clip-path="url(#clip3)"><g clip-path="url(#clip4)"><path d="M333.324 185.335C330.741 179.155 333.656 172.051 339.836 169.467L384.598 150.758C390.778 148.175 397.882 151.091 400.465 157.271L440.678 253.481C443.263 259.661 440.347 266.765 434.166 269.347L389.404 288.057C383.224 290.64 376.12 287.725 373.538 281.545Z" stroke="#FFE699" stroke-width="9.68732" stroke-linecap="butt" stroke-linejoin="miter" stroke-miterlimit="8" stroke-opacity="1" fill="none" fill-rule="evenodd" transform="matrix(1.00047 0 0 1 348.506 87.8521)"/><path d="M367.829 195.218C365.246 189.037 368.163 181.933 374.343 179.35L419.103 160.641C425.285 158.057 432.389 160.973 434.972 167.154L475.185 263.364C477.768 269.544 474.853 276.648 468.671 279.231L423.911 297.94C417.731 300.523 410.627 297.606 408.042 291.426Z" stroke="#FFE699" stroke-width="9.68732" stroke-linecap="butt" stroke-linejoin="miter" stroke-miterlimit="8" stroke-opacity="1" fill="none" fill-rule="evenodd" transform="matrix(1.00047 0 0 1 348.506 87.8521)"/></g></g></g></g></g></svg>